<svg xmlns="http://www.w3.org/2000/svg" width="190" height="53" viewBox="0 0 190 53" overflow="visible"><path d="M124.163 48.816a13.698 13.698 0 0 1-9.749 4.057c-7.581 0-13.727-6.146-13.727-13.73 0-7.581 6.146-13.726 13.727-13.726 4.666 0 8.77 2.338 11.249 5.898l-14.079 14.133c.947.473 1.993.77 3.121.77a7 7 0 0 0 4.84-1.934l4.618 4.532m-7.059-16.199a7.013 7.013 0 0 0-9.415 6.588c0 .854.201 1.65.481 2.401l8.934-8.989zM70.893 0c14.388 0 26.941 11.668 26.941 26.06S85.272 52.117 70.885 52.117l-3.423-.025V.015L70.893 0zM89.98 26.06c0-8.959-6.31-16.445-14.734-18.244l.006 36.468c8.423-1.795 14.728-9.263 14.728-18.224zM51.636 48.609c-2.193 2.625-5.293 4.266-8.726 4.266-6.645 0-12.031-6.141-12.031-13.714 0-7.572 5.386-13.706 12.031-13.706 3.449 0 6.556 1.649 8.745 4.299l-.041-3.682h7.826v26.025h-7.776l-.028-3.488zm-6.556-2.237c3.8 0 6.882-3.227 6.882-7.209 0-3.981-3.082-7.209-6.882-7.209-3.802 0-6.888 3.228-6.888 7.209 0 3.983 3.085 7.209 6.888 7.209zm143.422 2.444a13.705 13.705 0 0 1-9.749 4.057c-7.583 0-13.727-6.146-13.727-13.73 0-7.581 6.144-13.726 13.727-13.726 4.664 0 8.769 2.338 11.246 5.898l-14.073 14.133c.941.473 1.985.77 3.115.77a6.999 6.999 0 0 0 4.842-1.934l4.619 4.532zm-7.06-16.199a7.016 7.016 0 0 0-9.415 6.588c0 .854.2 1.648.484 2.401l8.931-8.989zM18.658.015L7.808 18.236V.015H0v52.077h7.808V26.058l13.258 26.034h8.788L14.581 22.14 27.728.015h-9.07zM145.65 7.833l-7.823 18.459L133.593.014h-7.922l8.611 53.066 11.366-26.873 11.364 26.873L165.625.014h-7.921l-4.234 26.278-7.82-18.459z"/></svg>